#N canvas 855 525 450 300 10;
#X obj 33 41 netreceive 13000;
#X floatatom 142 65 5 0 0 0 - - -, f 5;
#X obj 18 87 print received;
#X floatatom 124 141 5 0 0 0 - - -, f 5;
#X floatatom 186 139 5 0 0 0 - - -, f 5;
#X floatatom 245 139 5 0 0 0 - - -, f 5;
#X obj 125 88 route Button1 Button2 Button3;
#N canvas 787 406 570 424 oscillator 1;
#X obj 12 12 inlet on-off;
#X obj 14 178 tong~;
#X obj 13 39 bng 15 250 50 0 empty empty empty 17 7 0 10 -262144 -1
-1;
#X obj 57 151 mtof;
#X obj 14 200 *~ 0.8;
#X obj 47 102 + 80;
#X obj 14 222 clip~ -1 1;
#X obj 14 252 outlet~;
#N canvas 0 50 450 250 (subpatch) 0;
#X array notes 12 float 3;
#A 0 60 62 64 65 67 69 71 72 74 76 77 79;
#X coords 0 1 12 -1 200 140 1;
#X restore 348 264 graph;
#X obj 47 80 random 700;
#X obj 135 101 random 12;
#X obj 135 123 tabread notes;
#X floatatom 135 153 5 0 0 0 - - -, f 5;
#X msg 189 24 \; notes 0 60 62 64 65 67 69 71 72 74 76 77 79 81;
#X connect 0 0 2 0;
#X connect 1 0 4 0;
#X connect 2 0 1 0;
#X connect 2 0 9 0;
#X connect 2 0 10 0;
#X connect 3 0 1 1;
#X connect 4 0 6 0;
#X connect 5 0 1 2;
#X connect 6 0 7 0;
#X connect 9 0 5 0;
#X connect 10 0 11 0;
#X connect 11 0 12 0;
#X connect 12 0 3 0;
#X restore 70 177 pd oscillator;
#X obj 69 248 dac~;
#N canvas 870 263 450 300 effects 0;
#X obj 18 147 outlet~;
#X obj 76 147 outlet~;
#X obj 18 19 inlet~;
#X obj 69 19 inlet~;
#X obj 34 108 *~ 0.5;
#X obj 18 83 *~ 0.5;
#X obj 104 82 rev2~ 80 80 3000 20;
#X connect 2 0 5 0;
#X connect 2 0 6 0;
#X connect 3 0 4 0;
#X connect 3 0 6 0;
#X connect 4 0 1 0;
#X connect 5 0 0 0;
#X connect 6 0 0 0;
#X connect 6 1 1 0;
#X restore 70 215 pd effects;
#X connect 0 0 2 0;
#X connect 0 0 6 0;
#X connect 0 1 1 0;
#X connect 3 0 7 0;
#X connect 6 0 3 0;
#X connect 6 1 4 0;
#X connect 6 2 5 0;
#X connect 7 0 9 0;
#X connect 7 0 9 1;
#X connect 9 0 8 0;
#X connect 9 1 8 1;
