#N canvas 654 474 450 300 10;
#X obj 33 41 netreceive 13000;
#X floatatom 142 65 5 0 0 0 - - -, f 5;
#X obj 18 87 print received;
#X obj 125 88 route Button1;
#X floatatom 124 138 5 0 0 0 - - -, f 5;
#X obj 36 192 osc~ 440;
#X obj 36 227 *~;
#X obj 36 249 *~ 0.5;
#X obj 36 271 dac~;
#X connect 0 0 2 0;
#X connect 0 0 3 0;
#X connect 0 1 1 0;
#X connect 3 0 4 0;
#X connect 4 0 6 1;
#X connect 5 0 6 0;
#X connect 6 0 7 0;
#X connect 7 0 8 0;
#X connect 7 0 8 1;
